<?xml version="1.0" encoding="UTF-8"?>
<svg xmlns="http://www.w3.org/2000/svg" xmlns:xlink="http://www.w3.org/1999/xlink" width="224.688pt" height="236.421pt" viewBox="0 0 224.688 236.421">
<defs>
<g>
<g id="glyph-0-0">
<path d="M 0.53125 -2.546875 C 0.421875 -2.4375 0.421875 -2.203125 0.53125 -2.09375 L 5.265625 -2.09375 C 5.375 -2.203125 5.375 -2.4375 5.265625 -2.546875 Z M 0.53125 -2.546875 "/>
</g>
<g id="glyph-0-1">
<path d="M 2.578125 -1.09375 L 2.578125 -4.1875 C 2.578125 -4.734375 2.578125 -5.265625 2.59375 -5.390625 C 2.59375 -5.4375 2.578125 -5.4375 2.546875 -5.4375 C 2.0625 -5.125 1.578125 -4.90625 0.796875 -4.546875 C 0.8125 -4.4375 0.84375 -4.359375 0.921875 -4.296875 C 1.34375 -4.46875 1.53125 -4.515625 1.703125 -4.515625 C 1.859375 -4.515625 1.890625 -4.3125 1.890625 -4 L 1.890625 -1.09375 C 1.890625 -0.34375 1.640625 -0.296875 1.015625 -0.28125 C 0.96875 -0.21875 0.96875 -0.03125 1.015625 0.015625 C 1.453125 0.015625 1.78125 0 2.265625 0 C 2.6875 0 2.90625 0.015625 3.359375 0.015625 C 3.40625 -0.03125 3.40625 -0.21875 3.359375 -0.28125 C 2.71875 -0.296875 2.578125 -0.34375 2.578125 -1.09375 Z M 2.578125 -1.09375 "/>
</g>
<g id="glyph-0-2">
<path d="M 2.03125 0.09375 C 2.71875 0.09375 3.765625 -0.609375 3.765625 -2.703125 C 3.765625 -3.59375 3.5625 -4.359375 3.15625 -4.875 C 2.9375 -5.1875 2.5625 -5.453125 2.078125 -5.453125 C 1.1875 -5.453125 0.34375 -4.390625 0.34375 -2.625 C 0.34375 -1.671875 0.640625 -0.78125 1.140625 -0.28125 C 1.390625 -0.03125 1.6875 0.09375 2.03125 0.09375 Z M 2.078125 -5.140625 C 2.21875 -5.140625 2.375 -5.078125 2.46875 -4.984375 C 2.75 -4.75 3 -4.078125 3 -2.875 C 3 -2.0625 2.96875 -1.5 2.84375 -1.03125 C 2.640625 -0.296875 2.203125 -0.21875 2.046875 -0.21875 C 1.21875 -0.21875 1.125 -1.75 1.125 -2.53125 C 1.125 -4.734375 1.671875 -5.140625 2.078125 -5.140625 Z M 2.078125 -5.140625 "/>
</g>
<g id="glyph-0-3">
<path d="M 0.515625 -0.390625 C 0.515625 -0.125 0.71875 0.09375 0.984375 0.09375 C 1.25 0.09375 1.453125 -0.125 1.453125 -0.390625 C 1.453125 -0.640625 1.25 -0.859375 0.984375 -0.859375 C 0.71875 -0.859375 0.515625 -0.640625 0.515625 -0.390625 Z M 0.515625 -0.390625 "/>
</g>
<g id="glyph-0-4">
<path d="M 2.84375 -1.6875 C 2.84375 -0.84375 2.40625 -0.21875 1.875 -0.21875 C 1.53125 -0.21875 1.40625 -0.4375 1.28125 -0.609375 C 1.15625 -0.765625 1.015625 -0.90625 0.828125 -0.90625 C 0.65625 -0.90625 0.484375 -0.75 0.484375 -0.578125 C 0.484375 -0.203125 1.25 0.09375 1.75 0.09375 C 2.859375 0.09375 3.640625 -0.71875 3.640625 -1.84375 C 3.640625 -2.71875 3.046875 -3.5 2.046875 -3.5 C 1.65625 -3.5 1.328125 -3.421875 1.171875 -3.359375 L 1.34375 -4.84375 C 1.6875 -4.8125 1.96875 -4.765625 2.390625 -4.765625 C 2.65625 -4.765625 2.96875 -4.78125 3.328125 -4.8125 L 3.484375 -5.421875 L 3.421875 -5.453125 C 2.90625 -5.40625 2.421875 -5.359375 1.953125 -5.359375 C 1.625 -5.359375 1.296875 -5.375 0.984375 -5.40625 L 0.671875 -2.828125 C 1.15625 -3.015625 1.5 -3.046875 1.8125 -3.046875 C 2.390625 -3.046875 2.84375 -2.65625 2.84375 -1.6875 Z M 2.84375 -1.6875 "/>
</g>
<g id="glyph-0-5">
<path d="M 1.90625 -5.078125 L 1.046875 -0.671875 C 0.984375 -0.421875 0.859375 -0.296875 0.484375 -0.265625 L 0.21875 -0.234375 C 0.171875 -0.203125 0.15625 -0.0625 0.203125 0.015625 C 0.59375 0.015625 0.921875 0 1.265625 0 C 1.609375 0 2.015625 0.015625 2.40625 0.015625 C 2.4375 -0.015625 2.453125 -0.203125 2.4375 -0.234375 L 2.125 -0.265625 C 1.78125 -0.296875 1.6875 -0.40625 1.734375 -0.671875 L 2.59375 -5.078125 C 2.65625 -5.328125 2.78125 -5.453125 3.15625 -5.5 L 3.4375 -5.515625 C 3.46875 -5.5625 3.484375 -5.703125 3.453125 -5.78125 C 3.046875 -5.78125 2.71875 -5.765625 2.375 -5.765625 C 2.03125 -5.765625 1.640625 -5.78125 1.25 -5.78125 C 1.21875 -5.75 1.1875 -5.5625 1.21875 -5.515625 L 1.515625 -5.5 C 1.875 -5.46875 1.96875 -5.359375 1.90625 -5.078125 Z M 1.90625 -5.078125 "/>
</g>
<g id="glyph-0-6">
<path d="M 0.53125 1.140625 C 0.453125 1.21875 0.390625 1.28125 0.328125 1.375 L 0.625 1.546875 C 0.765625 1.390625 0.890625 1.25 1.03125 1.125 C 1.171875 1.046875 1.28125 1.015625 1.359375 1.015625 C 2.15625 1.015625 2.53125 1.875 3.640625 1.875 C 4.1875 1.875 4.59375 1.640625 5.015625 1.140625 L 4.890625 1.03125 C 4.671875 1.265625 4.328125 1.359375 4.078125 1.359375 C 3.328125 1.359375 2.78125 0.625 1.828125 0.625 C 1.78125 0.625 1.71875 0.625 1.65625 0.640625 C 2.1875 0.296875 2.65625 0.109375 2.953125 0.03125 C 4.3125 -0.234375 5.34375 -1.375 5.65625 -2.9375 C 5.6875 -3.171875 5.71875 -3.390625 5.71875 -3.609375 C 5.71875 -5 4.765625 -5.875 3.46875 -5.875 C 1.9375 -5.875 0.59375 -4.515625 0.25 -2.765625 C 0.203125 -2.53125 0.171875 -2.3125 0.171875 -2.09375 C 0.171875 -0.84375 0.921875 -0.0625 2.03125 0.078125 C 1.46875 0.34375 0.90625 0.765625 0.53125 1.140625 Z M 3.296875 -5.578125 C 4.265625 -5.578125 4.921875 -4.9375 4.921875 -3.671875 C 4.921875 -3.390625 4.890625 -3.09375 4.828125 -2.765625 C 4.515625 -1.171875 3.578125 -0.21875 2.59375 -0.21875 C 1.71875 -0.21875 0.984375 -0.921875 0.984375 -2.1875 C 0.984375 -2.40625 1.015625 -2.65625 1.078125 -2.921875 C 1.4375 -4.796875 2.515625 -5.578125 3.296875 -5.578125 Z M 3.296875 -5.578125 "/>
</g>
<g id="glyph-1-0">
<path d="M 0.3125 -3 L 0.3125 -2.796875 L 0.921875 -2.84375 L 0.921875 -1.046875 C 0.921875 -0.796875 0.921875 -0.546875 0.90625 -0.28125 L 0.3125 -0.171875 L 0.3125 0 L 1.953125 0 L 1.953125 -0.171875 L 1.34375 -0.28125 C 1.34375 -0.546875 1.34375 -0.796875 1.34375 -1.046875 L 1.34375 -2.5 L 1.359375 -3.203125 L 1.296875 -3.25 Z M 0.3125 -3 "/>
</g>
<g id="glyph-1-1">
<path d="M 0.484375 1.234375 L 0.765625 1.234375 L 0.765625 -3.71875 L 0.484375 -3.71875 Z M 0.484375 1.234375 "/>
</g>
<g id="glyph-1-2">
<path d="M 0.671875 -1.59375 C 0.671875 -2.765625 0.953125 -3.046875 1.25 -3.046875 C 1.546875 -3.046875 1.8125 -2.75 1.8125 -1.59375 C 1.8125 -0.4375 1.546875 -0.15625 1.25 -0.15625 C 0.953125 -0.15625 0.671875 -0.4375 0.671875 -1.59375 Z M 1.25 -3.28125 C 0.71875 -3.28125 0.1875 -2.828125 0.1875 -1.59375 C 0.1875 -0.359375 0.71875 0.0625 1.25 0.0625 C 1.78125 0.0625 2.296875 -0.359375 2.296875 -1.59375 C 2.296875 -2.828125 1.78125 -3.28125 1.25 -3.28125 Z M 1.25 -3.28125 "/>
</g>
<g id="glyph-1-3">
<path d="M 0.8125 -2.3125 C 0.578125 -2.3125 0.390625 -2.5 0.390625 -2.75 C 0.390625 -3.015625 0.578125 -3.21875 0.8125 -3.21875 C 1.046875 -3.21875 1.234375 -3.015625 1.234375 -2.75 C 1.234375 -2.5 1.046875 -2.3125 0.8125 -2.3125 Z M 0.8125 -2.125 C 1.15625 -2.125 1.453125 -2.375 1.453125 -2.75 C 1.453125 -3.140625 1.15625 -3.40625 0.8125 -3.40625 C 0.46875 -3.40625 0.1875 -3.140625 0.1875 -2.75 C 0.1875 -2.375 0.46875 -2.125 0.8125 -2.125 Z M 0.8125 -2.125 "/>
</g>
<g id="glyph-1-4">
<path d="M 0.671875 -2.296875 C 0.671875 -2.796875 0.9375 -3.046875 1.265625 -3.046875 C 1.625 -3.046875 1.875 -2.703125 1.875 -1.890625 C 1.875 -1.859375 1.875 -1.8125 1.875 -1.765625 C 1.71875 -1.640625 1.546875 -1.5625 1.328125 -1.5625 C 0.953125 -1.5625 0.671875 -1.78125 0.671875 -2.296875 Z M 2.328125 -1.984375 C 2.328125 -2.765625 1.9375 -3.28125 1.28125 -3.28125 C 0.65625 -3.28125 0.234375 -2.859375 0.234375 -2.25 C 0.234375 -1.640625 0.65625 -1.265625 1.1875 -1.265625 C 1.453125 -1.265625 1.671875 -1.34375 1.84375 -1.515625 C 1.75 -0.828125 1.359375 -0.390625 0.46875 -0.09375 L 0.515625 0.09375 C 1.796875 -0.203125 2.328125 -1.03125 2.328125 -1.984375 Z M 2.328125 -1.984375 "/>
</g>
<g id="glyph-1-5">
<path d="M 0.75 -2.546875 C 0.75 -2.859375 0.984375 -3.046875 1.265625 -3.046875 C 1.578125 -3.046875 1.765625 -2.796875 1.765625 -2.5 C 1.765625 -2.21875 1.65625 -2.046875 1.359375 -1.8125 C 0.875 -2.0625 0.75 -2.296875 0.75 -2.546875 Z M 0.25 -0.734375 C 0.25 -0.203125 0.671875 0.0625 1.265625 0.0625 C 1.84375 0.0625 2.28125 -0.28125 2.28125 -0.78125 C 2.28125 -1.21875 2.046875 -1.484375 1.546875 -1.71875 C 2 -1.984375 2.140625 -2.28125 2.140625 -2.515625 C 2.140625 -2.953125 1.796875 -3.28125 1.28125 -3.28125 C 0.765625 -3.28125 0.359375 -2.96875 0.359375 -2.4375 C 0.359375 -2.109375 0.53125 -1.8125 0.9375 -1.578125 C 0.484375 -1.34375 0.25 -1.09375 0.25 -0.734375 Z M 0.65625 -0.765625 C 0.65625 -1.09375 0.8125 -1.28125 1.125 -1.484375 C 1.6875 -1.21875 1.875 -1.03125 1.875 -0.75 C 1.875 -0.421875 1.640625 -0.15625 1.28125 -0.15625 C 0.921875 -0.15625 0.65625 -0.421875 0.65625 -0.765625 Z M 0.65625 -0.765625 "/>
</g>
<g id="glyph-1-6">
<path d="M 0.28125 0 L 2.328125 0 L 2.328125 -0.40625 L 0.65625 -0.40625 C 0.859375 -0.59375 1.0625 -0.78125 1.1875 -0.921875 C 1.953125 -1.65625 2.171875 -2 2.171875 -2.421875 C 2.171875 -2.921875 1.890625 -3.28125 1.25 -3.28125 C 0.75 -3.28125 0.3125 -3.03125 0.25 -2.5 C 0.3125 -2.40625 0.390625 -2.34375 0.5 -2.34375 C 0.640625 -2.34375 0.734375 -2.4375 0.796875 -2.6875 L 0.890625 -3.03125 C 0.984375 -3.046875 1.0625 -3.046875 1.140625 -3.046875 C 1.5 -3.046875 1.734375 -2.796875 1.734375 -2.390625 C 1.734375 -2 1.5 -1.59375 1.015625 -1.0625 C 0.796875 -0.84375 0.546875 -0.578125 0.28125 -0.328125 Z M 0.28125 0 "/>
</g>
<g id="glyph-1-7">
<path d="M 0.546875 -0.046875 L 0.59375 0 L 1.015625 0 L 2.1875 -2.953125 L 2.1875 -3.203125 L 0.140625 -3.203125 L 0.140625 -2.796875 L 1.859375 -2.796875 Z M 0.546875 -0.046875 "/>
</g>
<g id="glyph-1-8">
<path d="M 1.0625 -0.140625 C 1.0625 -0.265625 1.046875 -0.375 1 -0.5 C 0.875 -0.609375 0.78125 -0.640625 0.703125 -0.640625 C 0.484375 -0.640625 0.390625 -0.5 0.390625 -0.328125 C 0.390625 -0.203125 0.4375 -0.078125 0.578125 0.03125 L 0.765625 0.171875 C 0.640625 0.546875 0.375 0.78125 0.03125 0.9375 L 0.09375 1.109375 C 0.578125 0.9375 1.0625 0.453125 1.0625 -0.140625 Z M 1.0625 -0.140625 "/>
</g>
<g id="glyph-1-9">
<path d="M 2.296875 -1 C 2.296875 -1.65625 1.84375 -2.015625 1.203125 -2.015625 C 1.03125 -2.015625 0.890625 -2 0.734375 -1.953125 L 0.796875 -2.796875 L 2.203125 -2.796875 L 2.203125 -3.203125 L 0.578125 -3.203125 L 0.46875 -1.703125 L 0.609375 -1.65625 C 0.765625 -1.6875 0.921875 -1.71875 1.0625 -1.71875 C 1.546875 -1.71875 1.84375 -1.453125 1.84375 -0.953125 C 1.84375 -0.46875 1.578125 -0.15625 1.09375 -0.15625 C 1.015625 -0.15625 0.921875 -0.171875 0.8125 -0.203125 L 0.75 -0.46875 C 0.671875 -0.734375 0.609375 -0.8125 0.453125 -0.8125 C 0.34375 -0.8125 0.25 -0.75 0.203125 -0.640625 C 0.3125 -0.171875 0.625 0.0625 1.140625 0.0625 C 1.828125 0.0625 2.296875 -0.359375 2.296875 -1 Z M 2.296875 -1 "/>
</g>
<g id="glyph-1-10">
<path d="M 2.421875 -0.953125 L 2.421875 -1.265625 L 1.90625 -1.265625 L 1.90625 -3.25 L 1.625 -3.25 L 0.140625 -1.21875 L 0.140625 -0.953125 L 1.5 -0.953125 L 1.5 0 L 1.90625 0 L 1.90625 -0.953125 Z M 0.453125 -1.265625 L 1.5 -2.734375 L 1.5 -1.265625 Z M 0.453125 -1.265625 "/>
</g>
<g id="glyph-2-0">
<path d="M 1.34375 -4.59375 C 1.34375 -5.140625 1.78125 -5.484375 2.28125 -5.484375 C 2.84375 -5.484375 3.171875 -5.03125 3.171875 -4.5 C 3.171875 -4 2.984375 -3.671875 2.453125 -3.265625 C 1.5625 -3.703125 1.34375 -4.125 1.34375 -4.59375 Z M 0.4375 -1.328125 C 0.4375 -0.375 1.203125 0.109375 2.28125 0.109375 C 3.3125 0.109375 4.109375 -0.515625 4.109375 -1.40625 C 4.109375 -2.203125 3.671875 -2.65625 2.78125 -3.09375 C 3.609375 -3.578125 3.84375 -4.09375 3.84375 -4.515625 C 3.84375 -5.3125 3.25 -5.890625 2.3125 -5.890625 C 1.375 -5.890625 0.640625 -5.328125 0.640625 -4.390625 C 0.640625 -3.78125 0.953125 -3.25 1.703125 -2.828125 C 0.875 -2.421875 0.4375 -1.96875 0.4375 -1.328125 Z M 1.1875 -1.390625 C 1.1875 -1.96875 1.46875 -2.3125 2.03125 -2.65625 C 3.03125 -2.203125 3.359375 -1.875 3.359375 -1.34375 C 3.359375 -0.75 2.9375 -0.28125 2.3125 -0.28125 C 1.640625 -0.28125 1.1875 -0.75 1.1875 -1.390625 Z M 1.1875 -1.390625 "/>
</g>
<g id="glyph-2-1">
<path d="M 1.390625 -3 C 1.390625 -4.328125 1.921875 -5.671875 3.15625 -5.671875 C 4.40625 -5.671875 4.921875 -4.328125 4.921875 -3 C 4.921875 -1.640625 4.40625 -0.3125 3.15625 -0.3125 C 1.921875 -0.3125 1.390625 -1.640625 1.390625 -3 Z M 3.15625 -6.109375 C 1.78125 -6.109375 0.421875 -4.953125 0.421875 -3 C 0.421875 -1.1875 1.484375 -0.109375 2.703125 0.09375 C 2.703125 1.046875 3.328125 1.9375 4.46875 1.9375 C 4.828125 1.9375 5.265625 1.84375 5.5625 1.640625 L 5.46875 1.328125 C 5.1875 1.40625 4.953125 1.4375 4.765625 1.4375 C 4.03125 1.4375 3.5625 0.953125 3.546875 0.109375 C 4.78125 -0.078125 5.90625 -1.203125 5.90625 -3 C 5.90625 -5.03125 4.546875 -6.109375 3.15625 -6.109375 Z M 3.15625 -6.109375 "/>
</g>
<g id="glyph-2-2">
<path d="M 2.765625 -5.015625 L 3.65625 -2.359375 L 1.859375 -2.359375 Z M 0.046875 0 L 2.09375 0 L 2.09375 -0.359375 L 1.21875 -0.484375 L 1.71875 -1.9375 L 3.796875 -1.9375 L 4.28125 -0.46875 L 3.40625 -0.359375 L 3.40625 0 L 5.84375 0 L 5.84375 -0.359375 L 5.171875 -0.453125 L 3.265625 -6.03125 L 2.703125 -6.03125 L 0.796875 -0.484375 L 0.046875 -0.359375 Z M 0.046875 0 "/>
</g>
<g id="glyph-2-3">
<path d="M 0.34375 0 L 2.34375 0 L 2.34375 -0.359375 L 1.625 -0.484375 L 1.625 -3.296875 L 1.5625 -4.984375 L 3.609375 0 L 4.0625 0 L 6 -4.984375 L 6 -2.765625 C 6 -2 6 -1.21875 5.984375 -0.46875 L 5.234375 -0.359375 L 5.234375 0 L 7.65625 0 L 7.65625 -0.359375 L 6.84375 -0.46875 C 6.8125 -1.234375 6.8125 -2 6.8125 -2.765625 L 6.8125 -3.203125 C 6.8125 -3.984375 6.8125 -4.765625 6.84375 -5.515625 L 7.65625 -5.609375 L 7.65625 -5.984375 L 5.90625 -5.984375 L 4 -1.0625 L 2 -5.984375 L 0.34375 -5.984375 L 0.34375 -5.609375 L 1.15625 -5.515625 L 1.15625 -0.484375 L 0.34375 -0.359375 Z M 0.34375 0 "/>
</g>
</g>
<clipPath id="clip-0">
<path clip-rule="nonzero" d="M 210 120 L 224.257812 120 L 224.257812 136 L 210 136 Z M 210 120 "/>
</clipPath>
<clipPath id="clip-1">
<path clip-rule="nonzero" d="M 111 23 L 113 23 L 113 235.84375 L 111 235.84375 Z M 111 23 "/>
</clipPath>
<clipPath id="clip-2">
<path clip-rule="nonzero" d="M 199 116 L 224.257812 116 L 224.257812 124 L 199 124 Z M 199 116 "/>
</clipPath>
<clipPath id="clip-3">
<path clip-rule="nonzero" d="M 193 110 L 224.257812 110 L 224.257812 129 L 193 129 Z M 193 110 "/>
</clipPath>
<clipPath id="clip-4">
<path clip-rule="nonzero" d="M 0.117188 116 L 26 116 L 26 124 L 0.117188 124 Z M 0.117188 116 "/>
</clipPath>
<clipPath id="clip-5">
<path clip-rule="nonzero" d="M 0.117188 110 L 31 110 L 31 129 L 0.117188 129 Z M 0.117188 110 "/>
</clipPath>
</defs>
<path fill="none" stroke-width="0.19925" stroke-linecap="butt" stroke-linejoin="miter" stroke="rgb(50%, 50%, 50%)" stroke-opacity="1" stroke-miterlimit="10" d="M 105.875744 24.924542 L 110.128321 24.924542 M 105.875744 66.463524 L 110.128321 66.463524 M 105.875744 149.53757 L 110.128321 149.53757 M 105.875744 191.076552 L 110.128321 191.076552 " transform="matrix(0.997557, 0, 0, -0.997557, 4.453227, 235.644901)"/>
<path fill="none" stroke-width="0.3985" stroke-linecap="butt" stroke-linejoin="miter" stroke="rgb(0%, 0%, 0%)" stroke-opacity="1" stroke-miterlimit="10" d="M -0.000102021 107.998589 L 212.526922 107.998589 " transform="matrix(0.997557, 0, 0, -0.997557, 4.453227, 235.644901)"/>
<path fill-rule="nonzero" fill="rgb(0%, 0%, 0%)" fill-opacity="1" d="M 219.527344 127.910156 L 216.5625 126.148438 L 216.5625 129.667969 Z M 219.527344 127.910156 "/>
<g clip-path="url(#clip-0)">
<path fill="none" stroke-width="0.3985" stroke-linecap="butt" stroke-linejoin="miter" stroke="rgb(0%, 0%, 0%)" stroke-opacity="1" stroke-miterlimit="10" d="M 3.171868 -0.00188091 L 0.199763 1.764152 L 0.199763 -1.763998 Z M 3.171868 -0.00188091 " transform="matrix(0.997557, 0, 0, -0.997557, 216.363225, 127.90828)"/>
</g>
<g clip-path="url(#clip-1)">
<path fill="none" stroke-width="0.3985" stroke-linecap="butt" stroke-linejoin="miter" stroke="rgb(0%, 0%, 0%)" stroke-opacity="1" stroke-miterlimit="10" d="M 108.002033 0.000370338 L 108.002033 212.527394 " transform="matrix(0.997557, 0, 0, -0.997557, 4.453227, 235.644901)"/>
</g>
<path fill-rule="nonzero" fill="rgb(0%, 0%, 0%)" fill-opacity="1" stroke-width="0.3985" stroke-linecap="butt" stroke-linejoin="miter" stroke="rgb(0%, 0%, 0%)" stroke-opacity="1" stroke-miterlimit="10" d="M 3.17234 -0.00156254 L 0.200236 1.764471 L 0.200236 -1.76368 Z M 3.17234 -0.00156254 " transform="matrix(0, -0.997557, -0.997557, 0, 112.189848, 23.734903)"/>
<g fill="rgb(0%, 0%, 0%)" fill-opacity="1">
<use xlink:href="#glyph-0-0" x="96.932742" y="213.493151"/>
<use xlink:href="#glyph-0-1" x="102.728762" y="213.493151"/>
</g>
<g fill="rgb(0%, 0%, 0%)" fill-opacity="1">
<use xlink:href="#glyph-0-0" x="90.805748" y="172.029696"/>
<use xlink:href="#glyph-0-2" x="96.601767" y="172.029696"/>
<use xlink:href="#glyph-0-3" x="100.760948" y="172.029696"/>
<use xlink:href="#glyph-0-4" x="102.728733" y="172.029696"/>
</g>
<g fill="rgb(0%, 0%, 0%)" fill-opacity="1">
<use xlink:href="#glyph-0-2" x="96.601554" y="89.155656"/>
<use xlink:href="#glyph-0-3" x="100.760734" y="89.155656"/>
<use xlink:href="#glyph-0-4" x="102.728519" y="89.155656"/>
</g>
<g fill="rgb(0%, 0%, 0%)" fill-opacity="1">
<use xlink:href="#glyph-0-1" x="102.728548" y="47.746069"/>
</g>
<path fill="none" stroke-width="0.3985" stroke-linecap="butt" stroke-linejoin="miter" stroke="rgb(74.508667%, 74.508667%, 74.508667%)" stroke-opacity="1" stroke-miterlimit="10" d="M 24.92407 108.002505 L 25.256914 115.430809 L 25.589759 118.496893 L 25.922603 120.846383 L 26.255448 122.816039 L 26.588292 124.550745 L 26.921136 126.10924 L 27.253981 127.542429 L 27.586825 128.869891 L 27.91967 130.111205 L 28.252514 131.28595 L 28.585358 132.398042 L 28.918203 133.455312 L 29.251047 134.469509 L 29.583892 135.436715 L 29.916736 136.372595 L 30.24958 137.273233 L 30.582425 138.142544 L 30.915269 138.984445 L 31.248114 139.798935 L 31.580958 140.58993 L 31.913802 141.361346 L 32.250563 142.109267 L 32.583407 142.841524 L 32.916251 143.554203 L 33.249096 144.247302 L 33.58194 144.924739 L 33.914785 145.590427 L 34.247629 146.240453 L 34.580473 146.874815 L 34.913318 147.49743 L 35.246162 148.108297 L 35.579007 148.707417 L 35.911851 149.290874 L 36.244695 149.870415 L 36.57754 150.434292 L 36.910384 150.990338 L 37.243229 151.534637 L 37.576073 152.071104 L 37.908917 152.599739 L 38.241762 153.120542 L 38.574606 153.629599 L 38.907451 154.130823 L 39.240295 154.628132 L 39.573139 155.113693 L 39.905984 155.595339 L 40.238828 156.065236 L 40.571673 156.531219 L 40.904517 156.993285 L 41.237361 157.443604 L 41.570206 157.890007 L 41.906966 158.332494 L 42.23981 158.76715 L 42.572655 159.193974 L 42.905499 159.616882 L 43.238344 160.035874 L 43.571188 160.447035 L 43.904032 160.85428 L 44.236877 161.253693 L 44.569721 161.649191 L 44.902566 162.040772 L 45.23541 162.428438 L 45.901099 163.188107 L 46.233943 163.560109 L 46.566788 163.928196 L 46.899632 164.292367 L 47.565321 165.005046 L 47.898165 165.357469 L 48.563854 166.046653 L 49.229543 166.720173 L 49.562387 167.053018 L 50.228076 167.703043 L 50.56092 168.02414 L 50.893765 168.341321 L 51.226609 168.654586 L 51.559454 168.963936 L 51.896214 169.26937 L 52.229058 169.574803 L 52.894747 170.170007 L 53.227592 170.463694 L 53.89328 171.043235 L 54.558969 171.607112 L 54.891814 171.885135 L 55.557502 172.433349 L 55.890347 172.703541 L 56.223191 172.969816 L 56.88888 173.494536 L 57.221724 173.75298 L 57.887413 174.262036 L 58.220258 174.512648 L 58.885946 175.006041 L 59.218791 175.248821 L 59.88448 175.726551 L 60.550168 176.196449 L 60.883013 176.427482 L 61.215857 176.6546 L 61.548702 176.877801 L 61.885462 177.101003 L 62.218306 177.324204 L 62.551151 177.54349 L 63.216839 177.97423 L 63.549684 178.185684 L 63.882528 178.393222 L 64.215373 178.604676 L 64.881061 179.011921 L 65.54675 179.411334 L 66.212439 179.802916 L 66.878128 180.186666 L 67.543817 180.562584 L 68.209505 180.930671 L 68.54235 181.110799 L 68.875194 181.28701 L 69.208039 181.467138 L 70.206572 181.984026 L 70.872261 182.320786 L 71.205105 182.48525 L 71.541865 182.649715 L 72.540398 183.13136 L 72.873243 183.284077 L 73.206087 183.44071 L 73.538932 183.593426 L 73.871776 183.742227 L 74.20462 183.894944 L 75.203154 184.3296 L 76.201687 184.752508 L 76.534531 184.889562 L 76.867376 185.022699 L 77.20022 185.159753 L 77.533064 185.288975 L 77.865909 185.422113 L 78.198753 185.547419 L 78.531598 185.676641 L 79.197286 185.927253 L 79.862975 186.170034 L 80.861508 186.522457 L 81.194353 186.636016 L 81.531113 186.749574 L 82.529646 187.078503 L 83.195335 187.289957 L 84.193868 187.595391 L 84.859557 187.791182 L 85.85809 188.07312 L 86.856624 188.343312 L 87.522312 188.515608 L 88.520846 188.762304 L 89.519379 188.997253 L 90.185068 189.146054 L 90.517912 189.216539 L 90.850756 189.290939 L 91.183601 189.357508 L 91.520361 189.427993 L 91.853205 189.494562 L 92.18605 189.557215 L 92.518894 189.623784 L 92.851739 189.686437 L 93.184583 189.745174 L 93.517427 189.807827 L 93.850272 189.862649 L 94.183116 189.921386 L 94.848805 190.031029 L 96.180183 190.234651 L 96.513027 190.281641 L 96.845871 190.324715 L 97.178716 190.371705 L 97.51156 190.414779 L 97.844405 190.453937 L 98.177249 190.497011 L 98.510093 190.536169 L 99.841471 190.677138 L 100.840004 190.771118 L 101.172849 190.798529 L 101.509609 190.825939 L 102.508142 190.896424 L 102.840986 190.916003 L 103.173831 190.939498 L 103.506675 190.955161 L 103.83952 190.97474 L 104.505208 191.006067 L 105.503742 191.041309 L 106.502275 191.064804 L 107.500808 191.076552 L 108.499341 191.076552 L 109.497874 191.064804 L 110.496408 191.041309 L 110.829252 191.029562 L 111.166012 191.017814 L 111.498857 191.006067 L 112.164545 190.97474 L 112.49739 190.955161 L 112.830234 190.939498 L 113.163079 190.916003 L 113.495923 190.896424 L 114.494456 190.825939 L 115.160145 190.771118 L 116.158678 190.677138 L 117.490056 190.536169 L 117.8229 190.497011 L 118.155745 190.453937 L 118.488589 190.414779 L 118.821434 190.371705 L 119.154278 190.324715 L 119.487122 190.281641 L 119.819967 190.234651 L 120.8185 190.081934 L 121.15526 190.031029 L 121.820949 189.921386 L 122.153793 189.862649 L 122.486638 189.807827 L 122.819482 189.745174 L 123.152327 189.686437 L 123.485171 189.623784 L 123.818015 189.557215 L 124.15086 189.494562 L 124.483704 189.427993 L 124.816549 189.357508 L 125.149393 189.290939 L 125.482237 189.216539 L 125.815082 189.146054 L 126.480771 188.997253 L 127.479304 188.762304 L 128.477837 188.515608 L 129.143526 188.343312 L 130.142059 188.07312 L 130.807748 187.885161 L 131.144508 187.791182 L 131.810197 187.595391 L 132.80873 187.289957 L 133.474419 187.078503 L 134.472952 186.749574 L 135.138641 186.522457 L 136.137174 186.170034 L 136.802863 185.927253 L 137.468552 185.676641 L 137.801396 185.547419 L 138.13424 185.422113 L 138.467085 185.288975 L 138.799929 185.159753 L 139.132774 185.022699 L 139.465618 184.889562 L 139.798462 184.752508 L 140.796996 184.3296 L 141.133756 184.184715 L 141.799445 183.894944 L 142.132289 183.742227 L 142.465133 183.593426 L 142.797978 183.44071 L 143.130822 183.284077 L 143.463667 183.13136 L 144.4622 182.649715 L 145.127889 182.320786 L 145.793577 181.984026 L 146.792111 181.467138 L 147.124955 181.28701 L 147.457799 181.110799 L 147.790644 180.930671 L 148.456333 180.562584 L 149.122021 180.186666 L 149.78771 179.802916 L 150.453399 179.411334 L 150.790159 179.211628 L 151.123004 179.011921 L 151.788693 178.604676 L 152.121537 178.393222 L 152.454381 178.185684 L 152.787226 177.97423 L 153.452915 177.54349 L 153.785759 177.324204 L 154.784292 176.6546 L 155.117137 176.427482 L 155.449981 176.196449 L 156.11567 175.726551 L 156.781359 175.248821 L 157.114203 175.006041 L 157.779892 174.512648 L 158.112736 174.262036 L 158.778425 173.75298 L 159.111269 173.494536 L 159.776958 172.969816 L 160.109803 172.703541 L 160.442647 172.433349 L 160.779407 172.159242 L 161.112252 171.885135 L 161.445096 171.607112 L 162.110785 171.043235 L 162.776474 170.463694 L 163.109318 170.170007 L 163.775007 169.574803 L 164.440696 168.963936 L 164.77354 168.654586 L 165.106384 168.341321 L 165.439229 168.02414 L 165.772073 167.703043 L 166.437762 167.053018 L 166.770606 166.720173 L 167.436295 166.046653 L 168.101984 165.357469 L 168.434828 165.005046 L 169.100517 164.292367 L 169.433362 163.928196 L 169.766206 163.560109 L 170.09905 163.188107 L 170.431895 162.808272 L 170.768655 162.428438 L 171.101499 162.040772 L 171.434344 161.649191 L 171.767188 161.253693 L 172.100033 160.85428 L 172.432877 160.447035 L 172.765721 160.035874 L 173.098566 159.616882 L 173.43141 159.193974 L 173.764255 158.76715 L 174.097099 158.332494 L 174.429943 157.890007 L 174.762788 157.443604 L 175.095632 156.993285 L 175.428477 156.531219 L 175.761321 156.065236 L 176.094165 155.595339 L 176.42701 155.113693 L 176.759854 154.628132 L 177.092699 154.130823 L 177.425543 153.629599 L 177.758387 153.120542 L 178.091232 152.599739 L 178.424076 152.071104 L 178.756921 151.534637 L 179.089765 150.990338 L 179.422609 150.434292 L 179.755454 149.870415 L 180.088298 149.290874 L 180.421143 148.707417 L 180.757903 148.108297 L 181.090747 147.49743 L 181.423592 146.874815 L 181.756436 146.240453 L 182.089281 145.590427 L 182.422125 144.924739 L 182.754969 144.247302 L 183.087814 143.554203 L 183.420658 142.841524 L 183.753503 142.109267 L 184.086347 141.361346 L 184.419191 140.58993 L 184.752036 139.798935 L 185.08488 138.984445 L 185.417725 138.142544 L 185.750569 137.273233 L 186.083413 136.372595 L 186.416258 135.436715 L 186.749102 134.469509 L 187.081947 133.455312 L 187.414791 132.398042 L 187.747635 131.28595 L 188.08048 130.111205 L 188.413324 128.869891 L 188.746169 127.542429 L 189.079013 126.10924 L 189.411857 124.550745 L 189.744702 122.816039 L 190.077546 120.846383 L 190.414306 118.496893 L 190.747151 115.430809 L 191.079995 108.002505 " transform="matrix(0.997557, 0, 0, -0.997557, 4.453227, 235.644901)"/>
<path fill="none" stroke-width="0.3985" stroke-linecap="butt" stroke-linejoin="miter" stroke="rgb(74.508667%, 74.508667%, 74.508667%)" stroke-opacity="1" stroke-miterlimit="10" d="M 24.92407 108.002505 L 25.256914 100.570285 L 25.589759 97.504201 L 25.922603 95.154711 L 26.255448 93.185055 L 26.588292 91.450349 L 26.921136 89.891854 L 27.253981 88.458665 L 27.586825 87.131203 L 27.91967 85.889889 L 28.252514 84.715144 L 28.585358 83.603052 L 28.918203 82.545782 L 29.251047 81.535501 L 29.583892 80.564379 L 29.916736 79.628499 L 30.24958 78.727861 L 30.582425 77.85855 L 30.915269 77.016649 L 31.248114 76.202159 L 31.580958 75.411164 L 31.913802 74.639748 L 32.250563 73.891827 L 32.583407 73.15957 L 32.916251 72.446891 L 33.249096 71.753792 L 33.58194 71.076355 L 33.914785 70.410667 L 34.247629 69.760641 L 34.580473 69.126279 L 34.913318 68.503664 L 35.246162 67.892797 L 35.579007 67.297593 L 35.911851 66.71022 L 36.244695 66.134595 L 36.57754 65.566802 L 36.910384 65.010756 L 37.243229 64.466457 L 37.576073 63.92999 L 37.908917 63.401355 L 38.241762 62.884467 L 38.574606 62.371495 L 38.907451 61.870271 L 39.240295 61.372962 L 39.573139 60.887401 L 39.905984 60.405755 L 40.238828 59.935858 L 40.571673 59.469875 L 40.904517 59.007809 L 41.237361 58.55749 L 41.570206 58.111087 L 41.906966 57.6686 L 42.23981 57.233944 L 42.572655 56.80712 L 42.905499 56.384212 L 43.238344 55.96522 L 43.571188 55.554059 L 43.904032 55.146814 L 44.236877 54.747401 L 44.569721 54.351903 L 44.902566 53.960322 L 45.23541 53.572656 L 45.568254 53.192822 L 46.233943 52.440985 L 46.566788 52.072898 L 47.232476 51.352388 L 47.565321 50.996048 L 48.23101 50.299033 L 48.563854 49.954441 L 49.229543 49.280921 L 49.895232 48.623064 L 50.228076 48.298051 L 50.56092 47.976954 L 50.893765 47.659773 L 51.226609 47.346507 L 51.559454 47.037158 L 51.896214 46.731724 L 52.229058 46.426291 L 52.894747 45.831087 L 53.227592 45.5374 L 53.560436 45.24763 L 54.226125 44.675921 L 54.558969 44.393982 L 54.891814 44.115959 L 55.557502 43.567745 L 55.890347 43.297553 L 56.223191 43.031278 L 56.88888 42.506558 L 57.221724 42.248114 L 57.887413 41.739058 L 58.220258 41.488446 L 58.885946 40.995053 L 59.218791 40.752273 L 59.88448 40.274543 L 60.550168 39.804645 L 60.883013 39.577528 L 61.215857 39.346494 L 61.548702 39.123293 L 61.885462 38.900091 L 62.218306 38.67689 L 62.551151 38.457604 L 63.216839 38.026864 L 63.549684 37.81541 L 64.548217 37.192795 L 64.881061 36.989173 L 65.54675 36.58976 L 66.212439 36.198178 L 66.878128 35.814428 L 67.543817 35.43851 L 68.209505 35.070423 L 68.54235 34.890295 L 69.540883 34.36166 L 70.206572 34.017068 L 70.872261 33.680308 L 71.205105 33.515844 L 71.541865 33.351379 L 72.207554 33.030282 L 73.206087 32.560384 L 73.538932 32.407668 L 74.537465 31.961265 L 75.203154 31.671494 L 76.201687 31.248586 L 76.534531 31.111532 L 77.533064 30.712119 L 78.531598 30.324453 L 78.864442 30.199147 L 79.197286 30.077757 L 79.530131 29.952451 L 79.862975 29.83106 L 80.861508 29.478637 L 81.194353 29.365078 L 81.531113 29.255435 L 81.863957 29.141877 L 82.196802 29.032234 L 82.529646 28.926507 L 82.862491 28.816864 L 83.195335 28.715053 L 83.528179 28.609326 L 84.193868 28.405703 L 84.859557 28.209912 L 85.85809 27.927974 L 86.856624 27.657782 L 87.522312 27.485486 L 88.520846 27.23879 L 89.519379 27.003841 L 90.185068 26.85504 L 91.183601 26.643586 L 91.520361 26.573101 L 91.853205 26.506532 L 92.18605 26.443879 L 92.518894 26.37731 L 92.851739 26.314657 L 94.183116 26.079708 L 94.848805 25.970065 L 95.847338 25.817348 L 96.180183 25.770359 L 96.513027 25.719453 L 96.845871 25.676379 L 97.178716 25.629389 L 97.51156 25.586315 L 97.844405 25.547157 L 98.177249 25.504083 L 98.510093 25.468841 L 98.842938 25.429683 L 99.841471 25.323956 L 100.50716 25.261303 L 100.840004 25.233892 L 101.172849 25.202565 L 101.509609 25.17907 L 101.842453 25.15166 L 102.508142 25.10467 L 103.83952 25.026354 L 104.505208 24.995027 L 105.503742 24.959785 L 106.502275 24.93629 L 107.500808 24.924542 L 108.499341 24.924542 L 109.497874 24.93629 L 110.496408 24.959785 L 110.829252 24.971532 L 111.166012 24.98328 L 111.498857 24.995027 L 112.164545 25.026354 L 113.495923 25.10467 L 114.161612 25.15166 L 114.494456 25.17907 L 114.827301 25.202565 L 115.160145 25.233892 L 115.492989 25.261303 L 116.158678 25.323956 L 117.157211 25.429683 L 117.490056 25.468841 L 117.8229 25.504083 L 118.155745 25.547157 L 118.488589 25.586315 L 118.821434 25.629389 L 119.154278 25.676379 L 119.487122 25.719453 L 119.819967 25.770359 L 120.152811 25.817348 L 120.8185 25.91916 L 121.15526 25.970065 L 121.820949 26.079708 L 123.152327 26.314657 L 123.485171 26.37731 L 123.818015 26.443879 L 124.15086 26.506532 L 124.483704 26.573101 L 125.815082 26.85504 L 126.480771 27.003841 L 127.479304 27.23879 L 128.477837 27.485486 L 129.143526 27.657782 L 130.142059 27.927974 L 130.807748 28.115933 L 131.144508 28.209912 L 131.810197 28.405703 L 132.475886 28.609326 L 132.80873 28.715053 L 133.141574 28.816864 L 133.474419 28.926507 L 133.807263 29.032234 L 134.140108 29.141877 L 134.472952 29.255435 L 134.805796 29.365078 L 135.138641 29.478637 L 136.137174 29.83106 L 136.470018 29.952451 L 136.802863 30.077757 L 137.135707 30.199147 L 137.468552 30.324453 L 138.467085 30.712119 L 139.465618 31.111532 L 139.798462 31.248586 L 140.796996 31.671494 L 141.133756 31.816379 L 141.4666 31.961265 L 142.465133 32.407668 L 142.797978 32.560384 L 143.796511 33.030282 L 144.4622 33.351379 L 145.127889 33.680308 L 145.793577 34.017068 L 146.459266 34.36166 L 147.457799 34.890295 L 147.790644 35.070423 L 148.456333 35.43851 L 149.122021 35.814428 L 149.78771 36.198178 L 150.453399 36.58976 L 150.790159 36.789466 L 151.123004 36.989173 L 151.455848 37.192795 L 152.454381 37.81541 L 152.787226 38.026864 L 153.452915 38.457604 L 153.785759 38.67689 L 154.784292 39.346494 L 155.117137 39.577528 L 155.449981 39.804645 L 156.11567 40.274543 L 156.781359 40.752273 L 157.114203 40.995053 L 157.779892 41.488446 L 158.112736 41.739058 L 158.778425 42.248114 L 159.111269 42.506558 L 159.776958 43.031278 L 160.109803 43.297553 L 160.442647 43.567745 L 160.779407 43.841852 L 161.112252 44.115959 L 161.445096 44.393982 L 161.77794 44.675921 L 162.443629 45.24763 L 162.776474 45.5374 L 163.109318 45.831087 L 163.775007 46.426291 L 164.440696 47.037158 L 164.77354 47.346507 L 165.106384 47.659773 L 165.439229 47.976954 L 165.772073 48.298051 L 166.104918 48.623064 L 166.770606 49.280921 L 167.436295 49.954441 L 167.76914 50.299033 L 168.434828 50.996048 L 168.767673 51.352388 L 169.433362 52.072898 L 169.766206 52.440985 L 170.431895 53.192822 L 170.768655 53.572656 L 171.101499 53.960322 L 171.434344 54.351903 L 171.767188 54.747401 L 172.100033 55.146814 L 172.432877 55.554059 L 172.765721 55.96522 L 173.098566 56.384212 L 173.43141 56.80712 L 173.764255 57.233944 L 174.097099 57.6686 L 174.429943 58.111087 L 174.762788 58.55749 L 175.095632 59.007809 L 175.428477 59.469875 L 175.761321 59.935858 L 176.094165 60.405755 L 176.42701 60.887401 L 176.759854 61.372962 L 177.092699 61.870271 L 177.425543 62.371495 L 177.758387 62.884467 L 178.091232 63.401355 L 178.424076 63.92999 L 178.756921 64.466457 L 179.089765 65.010756 L 179.422609 65.566802 L 179.755454 66.134595 L 180.088298 66.71022 L 180.421143 67.297593 L 180.757903 67.892797 L 181.090747 68.503664 L 181.423592 69.126279 L 181.756436 69.760641 L 182.089281 70.410667 L 182.422125 71.076355 L 182.754969 71.753792 L 183.087814 72.446891 L 183.420658 73.15957 L 183.753503 73.891827 L 184.086347 74.639748 L 184.419191 75.411164 L 184.752036 76.202159 L 185.08488 77.016649 L 185.417725 77.85855 L 185.750569 78.727861 L 186.083413 79.628499 L 186.416258 80.564379 L 186.749102 81.535501 L 187.081947 82.545782 L 187.414791 83.603052 L 187.747635 84.715144 L 188.08048 85.889889 L 188.413324 87.131203 L 188.746169 88.458665 L 189.079013 89.891854 L 189.411857 91.450349 L 189.744702 93.185055 L 190.077546 95.154711 L 190.414306 97.504201 L 190.747151 100.570285 L 191.079995 108.002505 " transform="matrix(0.997557, 0, 0, -0.997557, 4.453227, 235.644901)"/>
<path fill="none" stroke-width="0.3985" stroke-linecap="butt" stroke-linejoin="miter" stroke="rgb(74.508667%, 74.508667%, 74.508667%)" stroke-opacity="1" stroke-miterlimit="10" d="M 66.463051 108.002505 L 66.627516 111.714699 L 66.795896 113.249699 L 66.96036 114.424444 L 67.12874 115.407314 L 67.293204 116.276625 L 67.461584 117.055873 L 67.626049 117.772467 L 67.794429 118.43424 L 67.958893 119.056855 L 68.127273 119.644227 L 68.291738 120.200273 L 68.460118 120.728908 L 68.624582 121.234049 L 68.792962 121.71961 L 68.957426 122.185592 L 69.125806 122.635911 L 69.294187 123.070567 L 69.458651 123.493475 L 69.627031 123.90072 L 69.791495 124.296217 L 69.959875 124.679967 L 70.12434 125.055886 L 70.29272 125.420057 L 70.457184 125.776396 L 70.625564 126.124904 L 70.790028 126.46558 L 70.958409 126.794508 L 71.122873 127.119521 L 71.291253 127.436702 L 71.455717 127.749967 L 71.624097 128.055401 L 71.788562 128.353003 L 71.956942 128.646689 L 72.121406 128.93646 L 72.289786 129.218399 L 72.45425 129.496422 L 72.622631 129.766613 L 72.787095 130.036804 L 72.955475 130.299164 L 73.119939 130.561524 L 73.288319 130.816052 L 73.452784 131.066664 L 73.621164 131.31336 L 73.785628 131.556141 L 73.954008 131.798922 L 74.122388 132.033871 L 74.286853 132.26882 L 74.455233 132.495937 L 74.619697 132.723054 L 74.788077 132.946256 L 74.952541 133.165542 L 75.120921 133.384827 L 75.285386 133.596281 L 75.453766 133.807736 L 75.61823 134.01919 L 75.78661 134.222812 L 75.951075 134.426435 L 76.119455 134.626141 L 76.283919 134.825848 L 76.452299 135.021639 L 76.616763 135.213514 L 76.785143 135.405389 L 76.949608 135.593348 L 77.117988 135.781307 L 77.282452 135.96535 L 77.450832 136.145478 L 77.615297 136.325606 L 77.783677 136.501817 L 77.948141 136.678029 L 78.116521 136.850325 L 78.280985 137.022621 L 78.449366 137.191001 L 78.61383 137.359381 L 78.78221 137.527761 L 78.946674 137.68831 L 79.115054 137.852774 L 79.283434 138.013322 L 79.447899 138.169955 L 79.616279 138.326588 L 79.780743 138.48322 L 79.949123 138.635937 L 80.113588 138.788654 L 80.281968 138.937455 L 80.446432 139.086256 L 80.614812 139.231141 L 80.779276 139.376027 L 80.947656 139.520912 L 81.112121 139.661881 L 81.280501 139.802851 L 81.444965 139.94382 L 81.613345 140.080874 L 81.77781 140.217927 L 81.94619 140.351065 L 82.110654 140.484203 L 82.279034 140.61734 L 82.443498 140.746562 L 82.611878 140.875784 L 82.776343 141.005006 L 82.944723 141.130312 L 83.109187 141.255619 L 83.277567 141.380925 L 83.442032 141.502315 L 83.610412 141.623705 L 83.774876 141.745096 L 84.111636 141.980045 L 84.2761 142.097519 L 84.444481 142.214994 L 84.608945 142.328552 L 84.777325 142.438195 L 84.941789 142.551754 L 85.110169 142.661397 L 85.274634 142.77104 L 85.443014 142.880682 L 85.607478 142.986409 L 85.775858 143.092136 L 85.940322 143.197864 L 86.108703 143.303591 L 86.273167 143.405402 L 86.441547 143.507213 L 86.606011 143.605108 L 86.774391 143.70692 L 86.938856 143.804815 L 87.107236 143.90271 L 87.2717 143.99669 L 87.44008 144.094585 L 87.604544 144.188565 L 87.772925 144.282545 L 87.937389 144.372608 L 88.105769 144.466588 L 88.270233 144.556652 L 88.438613 144.646716 L 88.603078 144.732864 L 88.939838 144.905159 L 89.104302 144.991307 L 89.272682 145.077455 L 89.437147 145.159688 L 89.605527 145.24192 L 89.769991 145.324152 L 89.938371 145.406384 L 90.102835 145.4847 L 90.271215 145.566932 L 90.43568 145.645249 L 90.60406 145.719649 L 90.768524 145.797966 L 90.936904 145.872366 L 91.101369 145.946767 L 91.269749 146.021167 L 91.434213 146.091652 L 91.602593 146.166052 L 91.767057 146.236537 L 91.935437 146.307022 L 92.099902 146.377506 L 92.268282 146.444075 L 92.432746 146.510644 L 92.601126 146.581129 L 92.765591 146.643782 L 92.933971 146.710351 L 93.098435 146.77692 L 93.266815 146.839573 L 93.431279 146.902226 L 93.59966 146.964879 L 93.764124 147.023616 L 93.932504 147.086269 L 94.100884 147.145007 L 94.265348 147.203744 L 94.433728 147.262481 L 94.598193 147.317302 L 94.766573 147.37604 L 94.931037 147.430861 L 95.099417 147.485683 L 95.263882 147.540504 L 95.432262 147.59141 L 95.596726 147.646231 L 95.765106 147.697137 L 95.92957 147.748042 L 96.09795 147.798948 L 96.262415 147.845938 L 96.430795 147.896843 L 96.595259 147.943833 L 96.763639 147.990823 L 96.928104 148.037813 L 97.096484 148.080887 L 97.260948 148.127876 L 97.429328 148.17095 L 97.593792 148.214024 L 97.762172 148.257098 L 97.926637 148.300172 L 98.095017 148.339331 L 98.259481 148.382405 L 98.427861 148.421563 L 98.592326 148.460721 L 98.760706 148.499879 L 98.929086 148.535121 L 99.09355 148.57428 L 99.26193 148.609522 L 99.426394 148.644764 L 99.594775 148.680007 L 99.759239 148.715249 L 99.927619 148.746575 L 100.092083 148.777902 L 100.260463 148.813144 L 100.424928 148.844471 L 100.593308 148.871882 L 100.757772 148.903208 L 100.926152 148.930619 L 101.090616 148.961945 L 101.258997 148.989356 L 101.423461 149.016767 L 101.591841 149.040262 L 101.756305 149.067672 L 101.924685 149.091167 L 102.08915 149.118578 L 102.25753 149.142073 L 102.421994 149.161652 L 102.590374 149.185147 L 102.754838 149.208642 L 102.923219 149.228221 L 103.087683 149.2478 L 103.256063 149.267379 L 103.420527 149.286958 L 103.588907 149.306537 L 103.757287 149.3222 L 103.921752 149.337864 L 104.090132 149.353527 L 104.254596 149.36919 L 104.422976 149.384854 L 104.587441 149.400517 L 104.755821 149.412264 L 104.920285 149.424012 L 105.088665 149.435759 L 105.253129 149.447507 L 105.421509 149.459254 L 105.585974 149.471002 L 105.754354 149.478833 L 105.918818 149.486665 L 106.087198 149.494496 L 106.251663 149.502328 L 106.420043 149.51016 L 106.584507 149.514075 L 106.752887 149.521907 L 106.917351 149.525823 L 107.085731 149.529739 L 107.250196 149.533655 L 107.418576 149.533655 L 107.58304 149.53757 L 108.417109 149.53757 L 108.581573 149.533655 L 108.749953 149.533655 L 108.918334 149.529739 L 109.082798 149.525823 L 109.251178 149.521907 L 109.415642 149.514075 L 109.584022 149.51016 L 109.748487 149.502328 L 109.916867 149.494496 L 110.081331 149.486665 L 110.249711 149.478833 L 110.414176 149.471002 L 110.582556 149.459254 L 110.74702 149.447507 L 110.9154 149.435759 L 111.079864 149.424012 L 111.248244 149.412264 L 111.412709 149.400517 L 111.581089 149.384854 L 111.745553 149.36919 L 111.913933 149.353527 L 112.078398 149.337864 L 112.246778 149.3222 L 112.411242 149.306537 L 112.579622 149.286958 L 112.744086 149.267379 L 112.912466 149.2478 L 113.076931 149.228221 L 113.245311 149.208642 L 113.409775 149.185147 L 113.578155 149.161652 L 113.746535 149.142073 L 113.911 149.118578 L 114.07938 149.091167 L 114.243844 149.067672 L 114.412224 149.040262 L 114.576688 149.016767 L 114.745069 148.989356 L 114.909533 148.961945 L 115.077913 148.930619 L 115.242377 148.903208 L 115.410757 148.871882 L 115.575222 148.844471 L 115.743602 148.813144 L 115.908066 148.777902 L 116.076446 148.746575 L 116.24091 148.715249 L 116.409291 148.680007 L 116.573755 148.644764 L 116.742135 148.609522 L 116.906599 148.57428 L 117.074979 148.535121 L 117.239444 148.499879 L 117.407824 148.460721 L 117.572288 148.421563 L 117.740668 148.382405 L 117.905132 148.339331 L 118.073513 148.300172 L 118.237977 148.257098 L 118.574737 148.17095 L 118.739201 148.127876 L 118.907581 148.080887 L 119.072046 148.037813 L 119.240426 147.990823 L 119.40489 147.943833 L 119.57327 147.896843 L 119.737735 147.845938 L 119.906115 147.798948 L 120.070579 147.748042 L 120.238959 147.697137 L 120.403423 147.646231 L 120.571803 147.59141 L 120.736268 147.540504 L 120.904648 147.485683 L 121.069112 147.430861 L 121.237492 147.37604 L 121.401957 147.317302 L 121.570337 147.262481 L 121.734801 147.203744 L 121.903181 147.145007 L 122.067645 147.086269 L 122.236025 147.023616 L 122.40049 146.964879 L 122.56887 146.902226 L 122.733334 146.839573 L 122.901714 146.77692 L 123.066179 146.710351 L 123.234559 146.643782 L 123.399023 146.581129 L 123.567403 146.510644 L 123.735783 146.444075 L 123.900247 146.377506 L 124.068628 146.307022 L 124.233092 146.236537 L 124.401472 146.166052 L 124.565936 146.091652 L 124.734316 146.021167 L 124.898781 145.946767 L 125.067161 145.872366 L 125.231625 145.797966 L 125.400005 145.719649 L 125.564469 145.645249 L 125.73285 145.566932 L 125.897314 145.4847 L 126.065694 145.406384 L 126.230158 145.324152 L 126.398538 145.24192 L 126.563003 145.159688 L 126.731383 145.077455 L 126.895847 144.991307 L 127.064227 144.905159 L 127.228692 144.819012 L 127.397072 144.732864 L 127.561536 144.646716 L 127.729916 144.556652 L 127.89438 144.466588 L 128.06276 144.372608 L 128.227225 144.282545 L 128.563985 144.094585 L 128.728449 143.99669 L 128.896829 143.90271 L 129.061294 143.804815 L 129.229674 143.70692 L 129.394138 143.605108 L 129.562518 143.507213 L 129.726982 143.405402 L 129.895363 143.303591 L 130.059827 143.197864 L 130.228207 143.092136 L 130.392671 142.986409 L 130.561051 142.880682 L 130.725516 142.77104 L 130.893896 142.661397 L 131.05836 142.551754 L 131.22674 142.438195 L 131.391204 142.328552 L 131.559585 142.214994 L 131.724049 142.097519 L 131.892429 141.980045 L 132.056893 141.86257 L 132.225273 141.745096 L 132.389738 141.623705 L 132.558118 141.502315 L 132.722582 141.380925 L 132.890962 141.255619 L 133.055426 141.130312 L 133.223807 141.005006 L 133.388271 140.875784 L 133.725031 140.61734 L 133.889495 140.484203 L 134.057875 140.351065 L 134.22234 140.217927 L 134.39072 140.080874 L 134.555184 139.94382 L 134.723564 139.802851 L 134.888029 139.661881 L 135.056409 139.520912 L 135.220873 139.376027 L 135.389253 139.231141 L 135.553717 139.086256 L 135.722097 138.937455 L 135.886562 138.788654 L 136.054942 138.635937 L 136.219406 138.48322 L 136.387786 138.326588 L 136.552251 138.169955 L 136.720631 138.013322 L 136.885095 137.852774 L 137.053475 137.68831 L 137.217939 137.527761 L 137.386319 137.359381 L 137.550784 137.191001 L 137.719164 137.022621 L 137.883628 136.850325 L 138.052008 136.678029 L 138.216473 136.501817 L 138.384853 136.325606 L 138.553233 136.145478 L 138.717697 135.96535 L 138.886077 135.781307 L 139.050541 135.593348 L 139.218922 135.405389 L 139.383386 135.213514 L 139.551766 135.021639 L 139.71623 134.825848 L 139.88461 134.626141 L 140.049075 134.426435 L 140.217455 134.222812 L 140.381919 134.01919 L 140.550299 133.807736 L 140.714763 133.596281 L 140.883144 133.384827 L 141.047608 133.165542 L 141.215988 132.946256 L 141.380452 132.723054 L 141.548832 132.495937 L 141.713297 132.26882 L 141.881677 132.033871 L 142.046141 131.798922 L 142.214521 131.556141 L 142.378985 131.31336 L 142.547366 131.066664 L 142.71183 130.816052 L 142.88021 130.561524 L 143.044674 130.299164 L 143.213054 130.036804 L 143.381435 129.766613 L 143.545899 129.496422 L 143.714279 129.218399 L 143.878743 128.93646 L 144.047123 128.646689 L 144.211588 128.353003 L 144.379968 128.055401 L 144.544432 127.749967 L 144.712812 127.436702 L 144.877276 127.119521 L 145.045657 126.794508 L 145.210121 126.46558 L 145.378501 126.124904 L 145.542965 125.776396 L 145.711345 125.420057 L 145.87581 125.055886 L 146.04419 124.679967 L 146.208654 124.296217 L 146.377034 123.90072 L 146.541498 123.493475 L 146.709879 123.070567 L 146.874343 122.635911 L 147.042723 122.185592 L 147.207187 121.71961 L 147.375567 121.234049 L 147.540032 120.728908 L 147.708412 120.200273 L 147.872876 119.644227 L 148.041256 119.056855 L 148.20572 118.43424 L 148.374101 117.772467 L 148.542481 117.055873 L 148.706945 116.276625 L 148.875325 115.407314 L 149.039789 114.424444 L 149.208169 113.249699 L 149.372634 111.714699 L 149.541014 108.002505 " transform="matrix(0.997557, 0, 0, -0.997557, 4.453227, 235.644901)"/>
<path fill="none" stroke-width="0.3985" stroke-linecap="butt" stroke-linejoin="miter" stroke="rgb(74.508667%, 74.508667%, 74.508667%)" stroke-opacity="1" stroke-miterlimit="10" d="M 66.463051 108.002505 L 66.627516 104.286395 L 66.795896 102.751395 L 66.96036 101.57665 L 67.12874 100.59378 L 67.293204 99.728385 L 67.461584 98.945221 L 67.626049 98.228627 L 67.794429 97.566854 L 67.958893 96.944239 L 68.127273 96.356867 L 68.291738 95.800821 L 68.460118 95.272186 L 68.624582 94.767045 L 68.792962 94.281484 L 68.957426 93.815502 L 69.125806 93.365183 L 69.294187 92.930527 L 69.458651 92.507619 L 69.627031 92.100374 L 69.791495 91.704877 L 69.959875 91.321127 L 70.12434 90.945208 L 70.29272 90.581037 L 70.457184 90.224698 L 70.625564 89.87619 L 70.790028 89.53943 L 70.958409 89.206586 L 71.122873 88.881573 L 71.291253 88.564392 L 71.455717 88.251127 L 71.624097 87.945693 L 71.788562 87.648091 L 71.956942 87.354405 L 72.121406 87.06855 L 72.289786 86.782695 L 72.45425 86.504672 L 72.622631 86.234481 L 72.787095 85.96429 L 72.955475 85.70193 L 73.119939 85.443486 L 73.288319 85.185042 L 73.452784 84.93443 L 73.621164 84.687734 L 73.785628 84.444953 L 73.954008 84.202172 L 74.122388 83.967223 L 74.286853 83.73619 L 74.455233 83.505157 L 74.619697 83.27804 L 74.788077 83.054838 L 74.952541 82.835552 L 75.120921 82.616267 L 75.285386 82.404813 L 75.453766 82.193358 L 75.61823 81.98582 L 75.78661 81.778282 L 75.951075 81.574659 L 76.119455 81.374953 L 76.283919 81.175246 L 76.452299 80.979455 L 76.616763 80.78758 L 76.785143 80.595705 L 76.949608 80.407746 L 77.117988 80.219787 L 77.282452 80.039659 L 77.450832 79.855616 L 77.615297 79.675488 L 77.783677 79.499277 L 77.948141 79.323065 L 78.116521 79.150769 L 78.280985 78.978473 L 78.449366 78.810093 L 78.61383 78.641713 L 78.78221 78.477249 L 78.946674 78.312784 L 79.115054 78.14832 L 79.283434 77.987772 L 79.447899 77.831139 L 79.616279 77.674506 L 79.780743 77.517874 L 79.949123 77.365157 L 80.113588 77.216356 L 80.281968 77.063639 L 80.446432 76.914838 L 80.614812 76.769953 L 80.779276 76.625067 L 80.947656 76.480182 L 81.112121 76.339213 L 81.280501 76.198243 L 81.444965 76.057274 L 81.613345 75.92022 L 81.77781 75.783167 L 81.94619 75.650029 L 82.110654 75.516891 L 82.279034 75.383754 L 82.443498 75.254532 L 82.611878 75.12531 L 82.776343 74.996088 L 82.944723 74.870782 L 83.109187 74.745475 L 83.277567 74.620169 L 83.442032 74.498779 L 83.610412 74.377389 L 83.774876 74.255998 L 84.111636 74.021049 L 84.2761 73.903575 L 84.444481 73.790016 L 84.608945 73.672542 L 84.777325 73.562899 L 84.941789 73.44934 L 85.110169 73.339697 L 85.274634 73.230054 L 85.443014 73.120412 L 85.607478 73.014685 L 85.775858 72.908958 L 85.940322 72.80323 L 86.108703 72.701419 L 86.273167 72.595692 L 86.441547 72.493881 L 86.606011 72.395986 L 86.774391 72.294174 L 86.938856 72.196279 L 87.107236 72.098384 L 87.2717 72.004404 L 87.44008 71.906509 L 87.604544 71.812529 L 87.772925 71.718549 L 87.937389 71.628486 L 88.105769 71.538422 L 88.270233 71.444442 L 88.438613 71.358294 L 88.603078 71.26823 L 88.939838 71.095935 L 89.104302 71.009787 L 89.272682 70.923639 L 89.437147 70.841406 L 89.605527 70.759174 L 89.769991 70.676942 L 89.938371 70.59471 L 90.102835 70.516394 L 90.271215 70.438077 L 90.43568 70.359761 L 90.60406 70.281445 L 90.768524 70.203128 L 90.936904 70.128728 L 91.101369 70.054327 L 91.269749 69.979927 L 91.434213 69.909442 L 91.602593 69.835042 L 91.767057 69.764557 L 91.935437 69.694072 L 92.099902 69.623588 L 92.268282 69.557019 L 92.432746 69.49045 L 92.601126 69.423881 L 92.765591 69.357312 L 92.933971 69.290743 L 93.098435 69.22809 L 93.266815 69.161521 L 93.431279 69.098868 L 93.59966 69.040131 L 93.764124 68.977478 L 93.932504 68.918741 L 94.100884 68.856087 L 94.265348 68.79735 L 94.433728 68.742529 L 94.598193 68.683792 L 94.766573 68.62897 L 94.931037 68.570233 L 95.099417 68.515411 L 95.263882 68.464506 L 95.432262 68.409684 L 95.596726 68.358779 L 95.765106 68.303957 L 95.92957 68.253052 L 96.09795 68.206062 L 96.262415 68.155156 L 96.430795 68.104251 L 96.595259 68.057261 L 96.763639 68.010271 L 96.928104 67.963281 L 97.096484 67.920207 L 97.260948 67.873218 L 97.429328 67.830144 L 97.593792 67.78707 L 97.762172 67.743996 L 97.926637 67.700922 L 98.095017 67.661763 L 98.259481 67.618689 L 98.427861 67.579531 L 98.592326 67.540373 L 98.760706 67.501215 L 98.929086 67.465973 L 99.09355 67.426814 L 99.26193 67.391572 L 99.426394 67.35633 L 99.594775 67.321087 L 99.759239 67.285845 L 99.927619 67.254519 L 100.092083 67.223192 L 100.260463 67.18795 L 100.424928 67.160539 L 100.593308 67.129212 L 100.757772 67.097886 L 100.926152 67.070475 L 101.090616 67.039149 L 101.258997 67.011738 L 101.423461 66.984327 L 101.591841 66.960832 L 101.756305 66.933422 L 101.924685 66.909927 L 102.08915 66.886432 L 102.25753 66.862937 L 102.421994 66.839442 L 102.590374 66.815947 L 102.754838 66.796368 L 102.923219 66.772873 L 103.087683 66.753294 L 103.256063 66.733715 L 103.420527 66.714136 L 103.588907 66.698473 L 103.757287 66.678894 L 103.921752 66.66323 L 104.090132 66.647567 L 104.254596 66.631904 L 104.422976 66.61624 L 104.587441 66.600577 L 104.755821 66.58883 L 104.920285 66.577082 L 105.088665 66.565335 L 105.253129 66.553587 L 105.421509 66.54184 L 105.585974 66.534008 L 105.754354 66.522261 L 105.918818 66.514429 L 106.087198 66.506598 L 106.251663 66.498766 L 106.420043 66.490934 L 106.584507 66.487018 L 106.752887 66.479187 L 106.917351 66.475271 L 107.085731 66.471355 L 107.250196 66.467439 L 107.418576 66.467439 L 107.58304 66.463524 L 108.417109 66.463524 L 108.581573 66.467439 L 108.749953 66.467439 L 108.918334 66.471355 L 109.082798 66.475271 L 109.251178 66.479187 L 109.415642 66.487018 L 109.584022 66.490934 L 109.748487 66.498766 L 109.916867 66.506598 L 110.081331 66.514429 L 110.249711 66.522261 L 110.414176 66.534008 L 110.582556 66.54184 L 110.74702 66.553587 L 110.9154 66.565335 L 111.079864 66.577082 L 111.248244 66.58883 L 111.412709 66.600577 L 111.581089 66.61624 L 111.745553 66.631904 L 111.913933 66.647567 L 112.078398 66.66323 L 112.246778 66.678894 L 112.411242 66.698473 L 112.579622 66.714136 L 112.744086 66.733715 L 112.912466 66.753294 L 113.076931 66.772873 L 113.245311 66.796368 L 113.409775 66.815947 L 113.746535 66.862937 L 113.911 66.886432 L 114.07938 66.909927 L 114.243844 66.933422 L 114.412224 66.960832 L 114.576688 66.984327 L 114.745069 67.011738 L 114.909533 67.039149 L 115.077913 67.070475 L 115.242377 67.097886 L 115.410757 67.129212 L 115.575222 67.160539 L 115.743602 67.18795 L 115.908066 67.223192 L 116.076446 67.254519 L 116.24091 67.285845 L 116.409291 67.321087 L 116.573755 67.35633 L 116.742135 67.391572 L 116.906599 67.426814 L 117.074979 67.465973 L 117.239444 67.501215 L 117.407824 67.540373 L 117.572288 67.579531 L 117.740668 67.618689 L 117.905132 67.661763 L 118.073513 67.700922 L 118.237977 67.743996 L 118.574737 67.830144 L 118.739201 67.873218 L 118.907581 67.920207 L 119.072046 67.963281 L 119.240426 68.010271 L 119.40489 68.057261 L 119.57327 68.104251 L 119.737735 68.155156 L 119.906115 68.206062 L 120.070579 68.253052 L 120.238959 68.303957 L 120.403423 68.358779 L 120.571803 68.409684 L 120.736268 68.464506 L 120.904648 68.515411 L 121.069112 68.570233 L 121.237492 68.62897 L 121.401957 68.683792 L 121.570337 68.742529 L 121.734801 68.79735 L 121.903181 68.856087 L 122.067645 68.918741 L 122.236025 68.977478 L 122.40049 69.040131 L 122.56887 69.098868 L 122.733334 69.161521 L 122.901714 69.22809 L 123.066179 69.290743 L 123.234559 69.357312 L 123.399023 69.423881 L 123.735783 69.557019 L 123.900247 69.623588 L 124.068628 69.694072 L 124.233092 69.764557 L 124.401472 69.835042 L 124.565936 69.909442 L 124.734316 69.979927 L 124.898781 70.054327 L 125.067161 70.128728 L 125.231625 70.203128 L 125.400005 70.281445 L 125.564469 70.359761 L 125.73285 70.438077 L 125.897314 70.516394 L 126.065694 70.59471 L 126.230158 70.676942 L 126.398538 70.759174 L 126.563003 70.841406 L 126.731383 70.923639 L 126.895847 71.009787 L 127.064227 71.095935 L 127.228692 71.182082 L 127.397072 71.26823 L 127.561536 71.358294 L 127.729916 71.444442 L 127.89438 71.538422 L 128.06276 71.628486 L 128.227225 71.718549 L 128.563985 71.906509 L 128.728449 72.004404 L 128.896829 72.098384 L 129.061294 72.196279 L 129.229674 72.294174 L 129.394138 72.395986 L 129.562518 72.493881 L 129.726982 72.595692 L 129.895363 72.701419 L 130.059827 72.80323 L 130.228207 72.908958 L 130.392671 73.014685 L 130.561051 73.120412 L 130.725516 73.230054 L 130.893896 73.339697 L 131.05836 73.44934 L 131.22674 73.562899 L 131.391204 73.672542 L 131.559585 73.790016 L 131.724049 73.903575 L 131.892429 74.021049 L 132.056893 74.138524 L 132.225273 74.255998 L 132.389738 74.377389 L 132.558118 74.498779 L 132.722582 74.620169 L 132.890962 74.745475 L 133.055426 74.870782 L 133.223807 74.996088 L 133.388271 75.12531 L 133.725031 75.383754 L 133.889495 75.516891 L 134.057875 75.650029 L 134.22234 75.783167 L 134.39072 75.92022 L 134.555184 76.057274 L 134.723564 76.198243 L 134.888029 76.339213 L 135.056409 76.480182 L 135.220873 76.625067 L 135.389253 76.769953 L 135.553717 76.914838 L 135.722097 77.063639 L 135.886562 77.216356 L 136.054942 77.365157 L 136.219406 77.517874 L 136.387786 77.674506 L 136.552251 77.831139 L 136.720631 77.987772 L 136.885095 78.14832 L 137.053475 78.312784 L 137.217939 78.477249 L 137.386319 78.641713 L 137.550784 78.810093 L 137.719164 78.978473 L 137.883628 79.150769 L 138.052008 79.323065 L 138.216473 79.499277 L 138.384853 79.675488 L 138.553233 79.855616 L 138.717697 80.039659 L 138.886077 80.219787 L 139.050541 80.407746 L 139.218922 80.595705 L 139.383386 80.78758 L 139.551766 80.979455 L 139.71623 81.175246 L 139.88461 81.374953 L 140.049075 81.574659 L 140.217455 81.778282 L 140.381919 81.98582 L 140.550299 82.193358 L 140.714763 82.404813 L 140.883144 82.616267 L 141.047608 82.835552 L 141.215988 83.054838 L 141.380452 83.27804 L 141.548832 83.505157 L 141.713297 83.73619 L 141.881677 83.967223 L 142.046141 84.202172 L 142.214521 84.444953 L 142.378985 84.687734 L 142.547366 84.93443 L 142.71183 85.185042 L 142.88021 85.443486 L 143.044674 85.70193 L 143.213054 85.96429 L 143.381435 86.234481 L 143.545899 86.504672 L 143.714279 86.782695 L 143.878743 87.06855 L 144.047123 87.354405 L 144.211588 87.648091 L 144.379968 87.945693 L 144.544432 88.251127 L 144.712812 88.564392 L 144.877276 88.881573 L 145.045657 89.206586 L 145.210121 89.53943 L 145.378501 89.87619 L 145.542965 90.224698 L 145.711345 90.581037 L 145.87581 90.945208 L 146.04419 91.321127 L 146.208654 91.704877 L 146.377034 92.100374 L 146.541498 92.507619 L 146.709879 92.930527 L 146.874343 93.365183 L 147.042723 93.815502 L 147.207187 94.281484 L 147.375567 94.767045 L 147.540032 95.272186 L 147.708412 95.800821 L 147.872876 96.356867 L 148.041256 96.944239 L 148.20572 97.566854 L 148.374101 98.228627 L 148.542481 98.945221 L 148.706945 99.728385 L 148.875325 100.59378 L 149.039789 101.57665 L 149.208169 102.751395 L 149.372634 104.286395 L 149.541014 108.002505 " transform="matrix(0.997557, 0, 0, -0.997557, 4.453227, 235.644901)"/>
<path fill-rule="nonzero" fill="rgb(0%, 62.745667%, 86.274719%)" fill-opacity="1" stroke-width="0.3985" stroke-linecap="butt" stroke-linejoin="miter" stroke="rgb(0%, 0%, 0%)" stroke-opacity="1" stroke-miterlimit="10" d="M 193.570454 107.998589 C 193.570454 109.376956 192.454447 110.492964 191.076079 110.492964 C 189.701628 110.492964 188.58562 109.376956 188.58562 107.998589 C 188.58562 106.624138 189.701628 105.50813 191.076079 105.50813 C 192.454447 105.50813 193.570454 106.624138 193.570454 107.998589 Z M 193.570454 107.998589 " transform="matrix(0.997557, 0, 0, -0.997557, 4.453227, 235.644901)"/>
<g clip-path="url(#clip-2)">
<path fill-rule="nonzero" fill="rgb(100%, 100%, 100%)" fill-opacity="1" d="M 223.066406 116.140625 L 200.210938 116.140625 C 199.660156 116.140625 199.214844 116.585938 199.214844 117.136719 L 199.214844 122.105469 C 199.214844 122.65625 199.660156 123.097656 200.210938 123.097656 L 223.066406 123.097656 C 223.617188 123.097656 224.0625 122.65625 224.0625 122.105469 L 224.0625 117.136719 C 224.0625 116.585938 223.617188 116.140625 223.066406 116.140625 Z M 223.066406 116.140625 "/>
</g>
<g clip-path="url(#clip-3)">
<path fill="none" stroke-width="0.3985" stroke-linecap="butt" stroke-linejoin="miter" stroke="rgb(74.508667%, 74.508667%, 74.508667%)" stroke-opacity="1" stroke-miterlimit="10" d="M 219.148568 119.796944 L 196.237125 119.796944 C 195.684995 119.796944 195.238592 119.350541 195.238592 118.798411 L 195.238592 113.817492 C 195.238592 113.265362 195.684995 112.822875 196.237125 112.822875 L 219.148568 112.822875 C 219.700698 112.822875 220.147101 113.265362 220.147101 113.817492 L 220.147101 118.798411 C 220.147101 119.350541 219.700698 119.796944 219.148568 119.796944 Z M 219.148568 119.796944 " transform="matrix(0.997557, 0, 0, -0.997557, 4.453227, 235.644901)"/>
</g>
<g fill="rgb(0%, 0%, 0%)" fill-opacity="1">
<use xlink:href="#glyph-1-0" x="206.733837" y="120.864002"/>
</g>
<g fill="rgb(0%, 0%, 0%)" fill-opacity="1">
<use xlink:href="#glyph-1-1" x="210.008507" y="120.864002"/>
</g>
<g fill="rgb(0%, 0%, 0%)" fill-opacity="1">
<use xlink:href="#glyph-1-2" x="212.413576" y="120.864002"/>
<use xlink:href="#glyph-1-3" x="214.90809" y="120.864002"/>
</g>
<path fill-rule="nonzero" fill="rgb(0%, 62.745667%, 86.274719%)" fill-opacity="1" stroke-width="0.3985" stroke-linecap="butt" stroke-linejoin="miter" stroke="rgb(0%, 0%, 0%)" stroke-opacity="1" stroke-miterlimit="10" d="M 110.492492 191.076552 C 110.492492 192.454919 109.376484 193.570927 108.002033 193.570927 C 106.623665 193.570927 105.507657 192.454919 105.507657 191.076552 C 105.507657 189.7021 106.623665 188.586092 108.002033 188.586092 C 109.376484 188.586092 110.492492 189.7021 110.492492 191.076552 Z M 110.492492 191.076552 " transform="matrix(0.997557, 0, 0, -0.997557, 4.453227, 235.644901)"/>
<path fill-rule="nonzero" fill="rgb(100%, 100%, 100%)" fill-opacity="1" stroke-width="0.3985" stroke-linecap="butt" stroke-linejoin="miter" stroke="rgb(74.508667%, 74.508667%, 74.508667%)" stroke-opacity="1" stroke-miterlimit="10" d="M 136.074521 202.870991 L 113.159163 202.870991 C 112.607033 202.870991 112.16063 202.424588 112.16063 201.876374 L 112.16063 196.895455 C 112.16063 196.343325 112.607033 195.896922 113.159163 195.896922 L 136.074521 195.896922 C 136.622735 195.896922 137.069138 196.343325 137.069138 196.895455 L 137.069138 201.876374 C 137.069138 202.424588 136.622735 202.870991 136.074521 202.870991 Z M 136.074521 202.870991 " transform="matrix(0.997557, 0, 0, -0.997557, 4.453227, 235.644901)"/>
<g fill="rgb(0%, 0%, 0%)" fill-opacity="1">
<use xlink:href="#glyph-1-0" x="122.568959" y="37.990959"/>
</g>
<g fill="rgb(0%, 0%, 0%)" fill-opacity="1">
<use xlink:href="#glyph-1-1" x="125.843629" y="37.990959"/>
</g>
<g fill="rgb(0%, 0%, 0%)" fill-opacity="1">
<use xlink:href="#glyph-1-4" x="128.248698" y="37.990959"/>
<use xlink:href="#glyph-1-2" x="130.832656" y="37.990959"/>
<use xlink:href="#glyph-1-3" x="133.32717" y="37.990959"/>
</g>
<path fill-rule="nonzero" fill="rgb(0%, 62.745667%, 86.274719%)" fill-opacity="1" stroke-width="0.3985" stroke-linecap="butt" stroke-linejoin="miter" stroke="rgb(0%, 0%, 0%)" stroke-opacity="1" stroke-miterlimit="10" d="M 27.414529 107.998589 C 27.414529 109.376956 26.298522 110.492964 24.92407 110.492964 C 23.545703 110.492964 22.429695 109.376956 22.429695 107.998589 C 22.429695 106.624138 23.545703 105.50813 24.92407 105.50813 C 26.298522 105.50813 27.414529 106.624138 27.414529 107.998589 Z M 27.414529 107.998589 " transform="matrix(0.997557, 0, 0, -0.997557, 4.453227, 235.644901)"/>
<g clip-path="url(#clip-4)">
<path fill-rule="nonzero" fill="rgb(100%, 100%, 100%)" fill-opacity="1" d="M 24.167969 116.140625 L 1.3125 116.140625 C 0.761719 116.140625 0.316406 116.585938 0.316406 117.136719 L 0.316406 122.105469 C 0.316406 122.65625 0.761719 123.097656 1.3125 123.097656 L 24.167969 123.097656 C 24.71875 123.097656 25.164062 122.65625 25.164062 122.105469 L 25.164062 117.136719 C 25.164062 116.585938 24.71875 116.140625 24.167969 116.140625 Z M 24.167969 116.140625 "/>
</g>
<g clip-path="url(#clip-5)">
<path fill="none" stroke-width="0.3985" stroke-linecap="butt" stroke-linejoin="miter" stroke="rgb(74.508667%, 74.508667%, 74.508667%)" stroke-opacity="1" stroke-miterlimit="10" d="M 19.763024 119.796944 L -3.148418 119.796944 C -3.700549 119.796944 -4.146952 119.350541 -4.146952 118.798411 L -4.146952 113.817492 C -4.146952 113.265362 -3.700549 112.822875 -3.148418 112.822875 L 19.763024 112.822875 C 20.315154 112.822875 20.761557 113.265362 20.761557 113.817492 L 20.761557 118.798411 C 20.761557 119.350541 20.315154 119.796944 19.763024 119.796944 Z M 19.763024 119.796944 " transform="matrix(0.997557, 0, 0, -0.997557, 4.453227, 235.644901)"/>
</g>
<g fill="rgb(0%, 0%, 0%)" fill-opacity="1">
<use xlink:href="#glyph-1-0" x="5.540564" y="120.864002"/>
</g>
<g fill="rgb(0%, 0%, 0%)" fill-opacity="1">
<use xlink:href="#glyph-1-1" x="8.810265" y="120.864002"/>
</g>
<g fill="rgb(0%, 0%, 0%)" fill-opacity="1">
<use xlink:href="#glyph-1-0" x="11.215334" y="120.864002"/>
</g>
<g fill="rgb(0%, 0%, 0%)" fill-opacity="1">
<use xlink:href="#glyph-1-5" x="13.287469" y="120.864002"/>
<use xlink:href="#glyph-1-2" x="15.816767" y="120.864002"/>
<use xlink:href="#glyph-1-3" x="18.311281" y="120.864002"/>
</g>
<path fill-rule="nonzero" fill="rgb(0%, 62.745667%, 86.274719%)" fill-opacity="1" stroke-width="0.3985" stroke-linecap="butt" stroke-linejoin="miter" stroke="rgb(0%, 0%, 0%)" stroke-opacity="1" stroke-miterlimit="10" d="M 110.492492 24.924542 C 110.492492 26.298994 109.376484 27.415002 108.002033 27.415002 C 106.623665 27.415002 105.507657 26.298994 105.507657 24.924542 C 105.507657 23.546175 106.623665 22.430167 108.002033 22.430167 C 109.376484 22.430167 110.492492 23.546175 110.492492 24.924542 Z M 110.492492 24.924542 " transform="matrix(0.997557, 0, 0, -0.997557, 4.453227, 235.644901)"/>
<path fill-rule="nonzero" fill="rgb(100%, 100%, 100%)" fill-opacity="1" stroke-width="0.3985" stroke-linecap="butt" stroke-linejoin="miter" stroke="rgb(74.508667%, 74.508667%, 74.508667%)" stroke-opacity="1" stroke-miterlimit="10" d="M 136.074521 20.104172 L 113.159163 20.104172 C 112.607033 20.104172 112.16063 19.657769 112.16063 19.105639 L 112.16063 14.12472 C 112.16063 13.57259 112.607033 13.130103 113.159163 13.130103 L 136.074521 13.130103 C 136.622735 13.130103 137.069138 13.57259 137.069138 14.12472 L 137.069138 19.105639 C 137.069138 19.657769 136.622735 20.104172 136.074521 20.104172 Z M 136.074521 20.104172 " transform="matrix(0.997557, 0, 0, -0.997557, 4.453227, 235.644901)"/>
<g fill="rgb(0%, 0%, 0%)" fill-opacity="1">
<use xlink:href="#glyph-1-0" x="121.4088" y="220.31245"/>
</g>
<g fill="rgb(0%, 0%, 0%)" fill-opacity="1">
<use xlink:href="#glyph-1-1" x="124.68347" y="220.31245"/>
</g>
<g fill="rgb(0%, 0%, 0%)" fill-opacity="1">
<use xlink:href="#glyph-1-6" x="127.088539" y="220.31245"/>
<use xlink:href="#glyph-1-7" x="129.612868" y="220.31245"/>
<use xlink:href="#glyph-1-2" x="131.993091" y="220.31245"/>
<use xlink:href="#glyph-1-3" x="134.487604" y="220.31245"/>
</g>
<path fill-rule="nonzero" fill="rgb(0%, 62.745667%, 86.274719%)" fill-opacity="1" stroke-width="0.3985" stroke-linecap="butt" stroke-linejoin="miter" stroke="rgb(0%, 0%, 0%)" stroke-opacity="1" stroke-miterlimit="10" d="M 139.865031 137.371129 C 139.865031 138.749496 138.749024 139.865504 137.374572 139.865504 C 135.996205 139.865504 134.880197 138.749496 134.880197 137.371129 C 134.880197 135.996677 135.996205 134.880669 137.374572 134.880669 C 138.749024 134.880669 139.865031 135.996677 139.865031 137.371129 Z M 139.865031 137.371129 " transform="matrix(0.997557, 0, 0, -0.997557, 4.453227, 235.644901)"/>
<path fill-rule="nonzero" fill="rgb(100%, 100%, 100%)" fill-opacity="1" stroke-width="0.3985" stroke-linecap="butt" stroke-linejoin="miter" stroke="rgb(74.508667%, 74.508667%, 74.508667%)" stroke-opacity="1" stroke-miterlimit="10" d="M 165.44706 149.165568 L 142.531702 149.165568 C 141.979572 149.165568 141.533169 148.723081 141.533169 148.17095 L 141.533169 143.190032 C 141.533169 142.637902 141.979572 142.195414 142.531702 142.195414 L 165.44706 142.195414 C 165.995275 142.195414 166.441678 142.637902 166.441678 143.190032 L 166.441678 148.17095 C 166.441678 148.723081 165.995275 149.165568 165.44706 149.165568 Z M 165.44706 149.165568 " transform="matrix(0.997557, 0, 0, -0.997557, 4.453227, 235.644901)"/>
<g fill="rgb(0%, 0%, 0%)" fill-opacity="1">
<use xlink:href="#glyph-1-2" x="149.910998" y="91.564756"/>
</g>
<g fill="rgb(0%, 0%, 0%)" fill-opacity="1">
<use xlink:href="#glyph-1-8" x="152.171961" y="91.564756"/>
</g>
<g fill="rgb(0%, 0%, 0%)" fill-opacity="1">
<use xlink:href="#glyph-1-9" x="153.518601" y="91.564756"/>
</g>
<g fill="rgb(0%, 0%, 0%)" fill-opacity="1">
<use xlink:href="#glyph-1-1" x="157.190803" y="91.564756"/>
</g>
<g fill="rgb(0%, 0%, 0%)" fill-opacity="1">
<use xlink:href="#glyph-1-10" x="159.595872" y="91.564756"/>
<use xlink:href="#glyph-1-9" x="162.06554" y="91.564756"/>
<use xlink:href="#glyph-1-3" x="164.584899" y="91.564756"/>
</g>
<path fill-rule="nonzero" fill="rgb(0%, 62.745667%, 86.274719%)" fill-opacity="1" stroke-width="0.3985" stroke-linecap="butt" stroke-linejoin="miter" stroke="rgb(0%, 0%, 0%)" stroke-opacity="1" stroke-miterlimit="10" d="M 81.119952 137.371129 C 81.119952 138.749496 80.003945 139.865504 78.629493 139.865504 C 77.251126 139.865504 76.135118 138.749496 76.135118 137.371129 C 76.135118 135.996677 77.251126 134.880669 78.629493 134.880669 C 80.003945 134.880669 81.119952 135.996677 81.119952 137.371129 Z M 81.119952 137.371129 " transform="matrix(0.997557, 0, 0, -0.997557, 4.453227, 235.644901)"/>
<path fill-rule="nonzero" fill="rgb(100%, 100%, 100%)" fill-opacity="1" stroke-width="0.3985" stroke-linecap="butt" stroke-linejoin="miter" stroke="rgb(74.508667%, 74.508667%, 74.508667%)" stroke-opacity="1" stroke-miterlimit="10" d="M 73.468447 149.165568 L 50.557005 149.165568 C 50.004875 149.165568 49.558471 148.723081 49.558471 148.17095 L 49.558471 143.190032 C 49.558471 142.637902 50.004875 142.195414 50.557005 142.195414 L 73.468447 142.195414 C 74.020577 142.195414 74.46698 142.637902 74.46698 143.190032 L 74.46698 148.17095 C 74.46698 148.723081 74.020577 149.165568 73.468447 149.165568 Z M 73.468447 149.165568 " transform="matrix(0.997557, 0, 0, -0.997557, 4.453227, 235.644901)"/>
<g fill="rgb(0%, 0%, 0%)" fill-opacity="1">
<use xlink:href="#glyph-1-2" x="58.161694" y="91.564756"/>
</g>
<g fill="rgb(0%, 0%, 0%)" fill-opacity="1">
<use xlink:href="#glyph-1-8" x="60.417688" y="91.564756"/>
</g>
<g fill="rgb(0%, 0%, 0%)" fill-opacity="1">
<use xlink:href="#glyph-1-9" x="61.764328" y="91.564756"/>
</g>
<g fill="rgb(0%, 0%, 0%)" fill-opacity="1">
<use xlink:href="#glyph-1-1" x="65.441499" y="91.564756"/>
</g>
<g fill="rgb(0%, 0%, 0%)" fill-opacity="1">
<use xlink:href="#glyph-1-10" x="67.846568" y="91.564756"/>
<use xlink:href="#glyph-1-9" x="70.316236" y="91.564756"/>
<use xlink:href="#glyph-1-3" x="72.835595" y="91.564756"/>
</g>
<path fill-rule="nonzero" fill="rgb(0%, 62.745667%, 86.274719%)" fill-opacity="1" stroke-width="0.3985" stroke-linecap="butt" stroke-linejoin="miter" stroke="rgb(0%, 0%, 0%)" stroke-opacity="1" stroke-miterlimit="10" d="M 81.119952 78.629965 C 81.119952 80.004417 80.003945 81.120425 78.629493 81.120425 C 77.251126 81.120425 76.135118 80.004417 76.135118 78.629965 C 76.135118 77.251598 77.251126 76.13559 78.629493 76.13559 C 80.003945 76.13559 81.119952 77.251598 81.119952 78.629965 Z M 81.119952 78.629965 " transform="matrix(0.997557, 0, 0, -0.997557, 4.453227, 235.644901)"/>
<path fill-rule="nonzero" fill="rgb(100%, 100%, 100%)" fill-opacity="1" stroke-width="0.3985" stroke-linecap="butt" stroke-linejoin="miter" stroke="rgb(74.508667%, 74.508667%, 74.508667%)" stroke-opacity="1" stroke-miterlimit="10" d="M 73.468447 73.80568 L 50.557005 73.80568 C 50.004875 73.80568 49.558471 73.363192 49.558471 72.811062 L 49.558471 67.830144 C 49.558471 67.278013 50.004875 66.83161 50.557005 66.83161 L 73.468447 66.83161 C 74.020577 66.83161 74.46698 67.278013 74.46698 67.830144 L 74.46698 72.811062 C 74.46698 73.363192 74.020577 73.80568 73.468447 73.80568 Z M 73.468447 73.80568 " transform="matrix(0.997557, 0, 0, -0.997557, 4.453227, 235.644901)"/>
<g fill="rgb(0%, 0%, 0%)" fill-opacity="1">
<use xlink:href="#glyph-1-2" x="58.161694" y="166.738654"/>
</g>
<g fill="rgb(0%, 0%, 0%)" fill-opacity="1">
<use xlink:href="#glyph-1-8" x="60.417688" y="166.738654"/>
</g>
<g fill="rgb(0%, 0%, 0%)" fill-opacity="1">
<use xlink:href="#glyph-1-9" x="61.764328" y="166.738654"/>
</g>
<g fill="rgb(0%, 0%, 0%)" fill-opacity="1">
<use xlink:href="#glyph-1-1" x="65.441499" y="166.738654"/>
</g>
<g fill="rgb(0%, 0%, 0%)" fill-opacity="1">
<use xlink:href="#glyph-1-10" x="67.846568" y="166.738654"/>
<use xlink:href="#glyph-1-9" x="70.316236" y="166.738654"/>
<use xlink:href="#glyph-1-3" x="72.835595" y="166.738654"/>
</g>
<path fill-rule="nonzero" fill="rgb(0%, 62.745667%, 86.274719%)" fill-opacity="1" stroke-width="0.3985" stroke-linecap="butt" stroke-linejoin="miter" stroke="rgb(0%, 0%, 0%)" stroke-opacity="1" stroke-miterlimit="10" d="M 139.865031 78.629965 C 139.865031 80.004417 138.749024 81.120425 137.374572 81.120425 C 135.996205 81.120425 134.880197 80.004417 134.880197 78.629965 C 134.880197 77.251598 135.996205 76.13559 137.374572 76.13559 C 138.749024 76.13559 139.865031 77.251598 139.865031 78.629965 Z M 139.865031 78.629965 " transform="matrix(0.997557, 0, 0, -0.997557, 4.453227, 235.644901)"/>
<path fill-rule="nonzero" fill="rgb(100%, 100%, 100%)" fill-opacity="1" stroke-width="0.3985" stroke-linecap="butt" stroke-linejoin="miter" stroke="rgb(74.508667%, 74.508667%, 74.508667%)" stroke-opacity="1" stroke-miterlimit="10" d="M 165.44706 73.80568 L 142.531702 73.80568 C 141.979572 73.80568 141.533169 73.363192 141.533169 72.811062 L 141.533169 67.830144 C 141.533169 67.278013 141.979572 66.83161 142.531702 66.83161 L 165.44706 66.83161 C 165.995275 66.83161 166.441678 67.278013 166.441678 67.830144 L 166.441678 72.811062 C 166.441678 73.363192 165.995275 73.80568 165.44706 73.80568 Z M 165.44706 73.80568 " transform="matrix(0.997557, 0, 0, -0.997557, 4.453227, 235.644901)"/>
<g fill="rgb(0%, 0%, 0%)" fill-opacity="1">
<use xlink:href="#glyph-1-2" x="149.910998" y="166.738654"/>
</g>
<g fill="rgb(0%, 0%, 0%)" fill-opacity="1">
<use xlink:href="#glyph-1-8" x="152.171961" y="166.738654"/>
</g>
<g fill="rgb(0%, 0%, 0%)" fill-opacity="1">
<use xlink:href="#glyph-1-9" x="153.518601" y="166.738654"/>
</g>
<g fill="rgb(0%, 0%, 0%)" fill-opacity="1">
<use xlink:href="#glyph-1-1" x="157.190803" y="166.738654"/>
</g>
<g fill="rgb(0%, 0%, 0%)" fill-opacity="1">
<use xlink:href="#glyph-1-10" x="159.595872" y="166.738654"/>
<use xlink:href="#glyph-1-9" x="162.06554" y="166.738654"/>
<use xlink:href="#glyph-1-3" x="164.584899" y="166.738654"/>
</g>
<g fill="rgb(0%, 0%, 0%)" fill-opacity="1">
<use xlink:href="#glyph-0-5" x="218.666614" y="136.876786"/>
</g>
<g fill="rgb(0%, 0%, 0%)" fill-opacity="1">
<use xlink:href="#glyph-0-6" x="103.633333" y="22.182674"/>
</g>
<g fill="rgb(0%, 0%, 0%)" fill-opacity="1">
<use xlink:href="#glyph-2-0" x="99.970303" y="9.099715"/>
<use xlink:href="#glyph-2-1" x="104.523041" y="9.099715"/>
</g>
<g fill="rgb(0%, 0%, 0%)" fill-opacity="1">
<use xlink:href="#glyph-2-2" x="110.489006" y="9.099715"/>
</g>
<g fill="rgb(0%, 0%, 0%)" fill-opacity="1">
<use xlink:href="#glyph-2-3" x="116.338692" y="9.099715"/>
</g>
</svg>
